# xmcd CD database file
# Copyright (C) 1995-1998 Ti Kan
#
# Track frame offsets:
#	150
#	1995
#	19652
#	41142
#	62350
#	77302
#	111785
#	134030
#	155750
#	171240
#	192842
#	216472
#	248600
#	269792
#	288430
#	306635
#
# Disc length: 4411 seconds
#
# Revision: 5
# Processed by: cddbd v1.5PL3 Copyright (c) Steve Scherf et al.
# Submitted via: CDex 1.30Release
#
DISCID=ea113910
DTITLE=The Charlie Daniels Band - The Live Record
DYEAR=2001
DGENRE=Country
TTITLE0=Intro
TTITLE1=Road Dogs
TTITLE2=Caballo Diablo
TTITLE3=Wooley Swamp
TTITLE4=Simple Man
TTITLE5=Sidewinder
TTITLE6=Trudy
TTITLE7=Still In Saigon
TTITLE8=In America
TTITLE9=Take The Highway
TTITLE10=In Memory Of Elizabeth Reed
TTITLE11=Freebird
TTITLE12=The South's Gonna Do It  (Again)
TTITLE13=Long Haired Country Boy
TTITLE14=Drinkin' My Baby Goodbye
TTITLE15=The Devil Went Down To Georgia
EXTD=YEAR: 2001 ID3G:   2
EXTT0=
EXTT1=
EXTT2=
EXTT3=
EXTT4=
EXTT5=
EXTT6=
EXTT7=
EXTT8=
EXTT9=
EXTT10=
EXTT11=
EXTT12=
EXTT13=
EXTT14=
EXTT15=
PLAYORDER=
